# xmcd CD database file
#
# Track frame offsets:
#	150
#	20313
#	40433
#	57209
#	74829
#	93766
#	114474
#	129005
#	146503
#	163504
#	181641
#	198731
#	211685
#	230807
#	251535
#
# Disc length: 3561 seconds
#
# Revision: 0
# Processed by: cddbd v1.5.2PL0 Copyright (c) Steve Scherf et al.
# Submitted via: CDex 1.70beta2
#
DISCID=cc0de70f
DTITLE=Various Artist - Merenhits 2007
DYEAR=2006
DGENRE=Merengue
TTITLE0=Eddy Herrera Ft. Vladimir Dotel - Amor De Locos
TTITLE1=Kinito M￩ndez Ft. Robertico - Delincuente
TTITLE2=Millie Quezada - Muerto El Perro
TTITLE3=Mala Fe - Pluma Pluma Gay
TTITLE4=Julian - El Chinito
TTITLE5=Ramon Orlando Y Miriam Cruz - Mi Gran Amor
TTITLE6=Guary Y Cleyton - Plata Y Billete
TTITLE7=Papi S￡nchez Ft. Martha Infante - Sigo Con Mi Calor
TTITLE8=La M￡kina - Mueve La Colita
TTITLE9=Geovanny Polanco - Lindo Amanecer
TTITLE10=El Prodigio - El Merenguero No Se Va
TTITLE11=Los Viejebos - La Botella
TTITLE12=Alex Bueno - Y El Amor A Veces
TTITLE13=El Jeffrey - Ni El Odio, Ni La Mentira
TTITLE14=Kid G Ft. La Verdad - Let's Get Drunk
EXTD=YEAR: 2006
EXTT0=
EXTT1=
EXTT2=
EXTT3=
EXTT4=
EXTT5=
EXTT6=
EXTT7=
EXTT8=
EXTT9=
EXTT10=
EXTT11=
EXTT12=
EXTT13=
EXTT14=
PLAYORDER=
